<svg width="16" height="16" viewBox="0 0 16 16" fill="none" xmlns="http://www.w3.org/2000/svg">
<path d="M9.68663 2.3933C9.59288 2.29966 9.4658 2.24707 9.3333 2.24707C9.2008 2.24707 9.07371 2.29966 8.97996 2.3933L2.3933 8.97996C2.29966 9.07371 2.24707 9.2008 2.24707 9.3333C2.24707 9.4658 2.29966 9.59288 2.3933 9.68663L3.10596 10.3986C3.45442 10.2039 3.8569 10.1283 4.25226 10.1832C4.64762 10.2381 5.01426 10.4205 5.29651 10.7028C5.57875 10.985 5.76117 11.3516 5.81606 11.747C5.87095 12.1424 5.79531 12.5448 5.60063 12.8933L6.3133 13.6066C6.35973 13.6531 6.41486 13.69 6.47555 13.7151C6.53623 13.7402 6.60128 13.7532 6.66696 13.7532C6.73265 13.7532 6.7977 13.7402 6.85838 13.7151C6.91906 13.69 6.9742 13.6531 7.02063 13.6066L13.6066 7.02063C13.7003 6.92688 13.7529 6.7998 13.7529 6.6673C13.7529 6.5348 13.7003 6.40771 13.6066 6.31396L12.8933 5.59996C12.5448 5.79464 12.1424 5.87029 11.747 5.8154C11.3516 5.76051 10.985 5.57809 10.7028 5.29584C10.4205 5.0136 10.2381 4.64695 10.1832 4.25159C10.1283 3.85623 10.2039 3.45375 10.3986 3.1053L9.68663 2.3933ZM8.2733 1.68663C8.41258 1.54734 8.57794 1.43685 8.75993 1.36147C8.94192 1.28608 9.13698 1.24728 9.33396 1.24728C9.53095 1.24728 9.726 1.28608 9.90799 1.36147C10.09 1.43685 10.2553 1.54734 10.3946 1.68663L11.1753 2.46796C11.516 2.80796 11.4553 3.28596 11.2833 3.57463C11.1887 3.73387 11.1499 3.92006 11.173 4.10381C11.196 4.28756 11.2796 4.4584 11.4106 4.58935C11.5415 4.7203 11.7124 4.8039 11.8961 4.82695C12.0799 4.84999 12.2661 4.81118 12.4253 4.71663C12.714 4.5453 13.192 4.48396 13.532 4.82463L14.3133 5.60663C14.4526 5.74592 14.5631 5.91128 14.6385 6.09327C14.7138 6.27526 14.7526 6.47031 14.7526 6.6673C14.7526 6.86428 14.7138 7.05934 14.6385 7.24133C14.5631 7.42332 14.4526 7.58868 14.3133 7.72796L7.72796 14.3133C7.58868 14.4526 7.42332 14.5631 7.24133 14.6385C7.05934 14.7138 6.86428 14.7526 6.6673 14.7526C6.47031 14.7526 6.27526 14.7138 6.09327 14.6385C5.91128 14.5631 5.74592 14.4526 5.60663 14.3133L4.8253 13.5326C4.4853 13.1926 4.5453 12.714 4.7173 12.426C4.81185 12.2667 4.85066 12.0805 4.82761 11.8968C4.80456 11.713 4.72096 11.5422 4.59001 11.4112C4.45906 11.2803 4.28823 11.1967 4.10448 11.1736C3.92073 11.1506 3.73453 11.1894 3.5753 11.284C3.28663 11.4553 2.80863 11.516 2.46863 11.1753L1.68663 10.394C1.54734 10.2547 1.43685 10.0893 1.36147 9.90733C1.28608 9.72534 1.24728 9.53028 1.24728 9.3333C1.24728 9.13631 1.28608 8.94126 1.36147 8.75927C1.43685 8.57728 1.54734 8.41192 1.68663 8.27263L8.2733 1.68663Z" fill="#6C757D"/>
</svg>
